<svg width="120" height="40" viewBox="0 0 120 40" fill="none" xmlns="http://www.w3.org/2000/svg">
  <!-- 背景 -->
  <rect width="120" height="40" rx="8" fill="#2C3E50"/>
  
  <!-- 建筑图标 -->
  <g transform="translate(8, 8)">
    <!-- 主建筑 -->
    <rect x="2" y="12" width="8" height="12" fill="#3498DB"/>
    <rect x="12" y="8" width="8" height="16" fill="#E74C3C"/>
    <rect x="22" y="10" width="8" height="14" fill="#F39C12"/>
    
    <!-- 窗户 -->
    <rect x="4" y="14" width="1.5" height="2" fill="white"/>
    <rect x="6.5" y="14" width="1.5" height="2" fill="white"/>
    <rect x="4" y="17" width="1.5" height="2" fill="white"/>
    <rect x="6.5" y="17" width="1.5" height="2" fill="white"/>
    
    <rect x="14" y="10" width="1.5" height="2" fill="white"/>
    <rect x="16.5" y="10" width="1.5" height="2" fill="white"/>
    <rect x="14" y="13" width="1.5" height="2" fill="white"/>
    <rect x="16.5" y="13" width="1.5" height="2" fill="white"/>
    <rect x="14" y="16" width="1.5" height="2" fill="white"/>
    <rect x="16.5" y="16" width="1.5" height="2" fill="white"/>
    
    <rect x="24" y="12" width="1.5" height="2" fill="white"/>
    <rect x="26.5" y="12" width="1.5" height="2" fill="white"/>
    <rect x="24" y="15" width="1.5" height="2" fill="white"/>
    <rect x="26.5" y="15" width="1.5" height="2" fill="white"/>
    
    <!-- 门 -->
    <rect x="5" y="20" width="2" height="4" fill="white"/>
    <rect x="15" y="20" width="2" height="4" fill="white"/>
    <rect x="25" y="20" width="2" height="4" fill="white"/>
  </g>
  
  <!-- 文字 -->
  <text x="48" y="16" font-family="Arial, sans-serif" font-size="10" font-weight="bold" fill="white">解构建筑</text>
  <text x="48" y="28" font-family="Arial, sans-serif" font-size="8" fill="#BDC3C7">小教室</text>
</svg>