<svg width="24" height="24" viewBox="0 0 24 24" fill="none" xmlns="http://www.w3.org/2000/svg">
  <path d="M8.5 11C9.32843 11 10 10.3284 10 9.5C10 8.67157 9.32843 8 8.5 8C7.67157 8 7 8.67157 7 9.5C7 10.3284 7.67157 11 8.5 11Z" fill="currentColor"/>
  <path d="M15.5 11C16.3284 11 17 10.3284 17 9.5C17 8.67157 16.3284 8 15.5 8C14.6716 8 14 8.67157 14 9.5C14 10.3284 14.6716 11 15.5 11Z" fill="currentColor"/>
  <path d="M12 2C6.48 2 2 6.48 2 12C2 17.52 6.48 22 12 22C17.52 22 22 17.52 22 12C22 6.48 17.52 2 12 2ZM16.64 15.8C16.49 15.92 16.31 16 16.12 16H7.88C7.69 16 7.51 15.92 7.36 15.8C7.21 15.68 7.12 15.5 7.12 15.31V8.69C7.12 8.5 7.21 8.32 7.36 8.2C7.51 8.08 7.69 8 7.88 8H16.12C16.31 8 16.49 8.08 16.64 8.2C16.79 8.32 16.88 8.5 16.88 8.69V15.31C16.88 15.5 16.79 15.68 16.64 15.8Z" fill="currentColor"/>
  <circle cx="9" cy="13" r="1" fill="currentColor"/>
  <circle cx="15" cy="13" r="1" fill="currentColor"/>
</svg>