<svg width="32" height="32" viewBox="0 0 32 32" fill="none" xmlns="http://www.w3.org/2000/svg">
  <!-- 微博橙色背景 -->
  <rect width="32" height="32" rx="6" fill="#E6162D"/>
  
  <!-- 微博图标 -->
  <g transform="translate(6, 8)">
    <path d="M8.5 12C11.5 12 14 9.5 14 6.5C14 3.5 11.5 1 8.5 1C5.5 1 3 3.5 3 6.5C3 9.5 5.5 12 8.5 12Z" fill="white"/>
    <path d="M16 8C17.5 8 18.5 6.5 18.5 5C18.5 3.5 17.5 2 16 2C14.5 2 13.5 3.5 13.5 5C13.5 6.5 14.5 8 16 8Z" fill="white"/>
    <circle cx="7" cy="5.5" r="1" fill="#E6162D"/>
    <circle cx="10" cy="5.5" r="1" fill="#E6162D"/>
    <circle cx="16" cy="4.5" r="0.5" fill="#E6162D"/>
  </g>
</svg>